# xmcd
#
# Track frame offsets:
#	150
#	13113
#	31933
#	47533
#	62911
#	74971
#	94647
#	119715
#	135244
#	155532
#	173623
#	190087
#	207211
#	227480
#	245334
#	265109
#	291066
#	302551
#	317364
#	336414
#	351122
#
# Disc length: 4790 seconds
#
# Revision: 0
# Processed by: cddbd v1.5.2PL0 Copyright (c) Steve Scherf et al.
# Submitted via: EasyCDDAExtractor 8.2.3.1
#
DISCID=2912b415
DTITLE=Various Artist - Country and Western  vol.7   CD-2
DYEAR=2006
DGENRE=Country
TTITLE0=JOHN FOGERTY - Honey Do
TTITLE1=DIRE STRAITS - Six Blade Knife
TTITLE2=HANK SHIZZOE - 1-800-Grand-Prize
TTITLE3=LYNYRD SKYNYRD - I Ain't the One
TTITLE4=J.J.CALE - Lady Luck
TTITLE5=MARK KNOPFLER and EMMYLOU HARRIS - Love and Happiness
TTITLE6=ATLANTA RHYTHM SECTION - Imaginary Lover
TTITLE7=HANK SHIZZOE - Bedpopthang
TTITLE8=GREG HARRIS - Line In the Water
TTITLE9=LYNYRD SKYNYRD - Sweet Home Alabama
TTITLE10=BIG HOUSE - Soul Country
TTITLE11=DIRE STRAITS - How Long
TTITLE12=JOEL JOHNSON - Minneapolis Girls
TTITLE13=LITTLE FEAT - Dixie Chicken
TTITLE14=TONY JOE WHITE - Can't Go Back Home
TTITLE15=The UNDERDOGS - Bye-Bye
TTITLE16=J.J.CALE - Clyde
TTITLE17=JOHN FOGERTY - Rhubard Pie
TTITLE18=HANK SHIZZOE - You Make It Sway
TTITLE19=BIG HOUSE - Whose Baby Will You Be Tonight
TTITLE20=TONY JOE WHITE - Gabriella
EXTD=
EXTT0=
EXTT1=
EXTT2=
EXTT3=
EXTT4=
EXTT5=
EXTT6=
EXTT7=
EXTT8=
EXTT9=
EXTT10=
EXTT11=
EXTT12=
EXTT13=
EXTT14=
EXTT15=
EXTT16=
EXTT17=
EXTT18=
EXTT19=
EXTT20=
PLAYORDER=
